<?xml version="1.0" encoding="UTF-8"?>
<svg version="1.1" viewBox="0 0 1084 1084" width="271" height="271" xmlns="http://www.w3.org/2000/svg">
<path transform="translate(534,168)" d="m0 0h41l41 3 29 4 31 7 25 7 29 10 24 10 25 12 16 8 16 10 17 11 16 11 12 9 13 10 14 12 13 12 24 24 9 11 11 13 11 14 10 14 13 21 10 18 10 21 11 28 7 25 5 25 2 14 1 13v40l-4 36-2 7-7 6h-5l-8-6-25-25-5-6-8-7-13-13-11-9-4-5-3-16-5-10-5-5-10-5-4-1h-12l-12 6-5 4-5 8-2 8v11l3 9 9 10 10 5 5 1h12l5-1 8 4 14 12 40 40 9 11 6 8 3 8-2 9-7 8-10 7-17 9-30 10-19 4 4 16 3 10 2 12v30l-3 18-7 19-9 14-9 12-14 14-15 10-14 7-24 8-23 4-9 1h-38l-26-6-14-5-25-12-16-8-14-6-12-4-15-2-15-1h-13l-15 2-10 5-7 8-3 8-2 12-3 25-4 16-5 10-10 11-14 9-4-4-6-21-8-29-14-41-9-23-1-9 5-4 16-7 19-6 22-5 17-3h43l29 4 12 2 27 2h12l14-2 16-5 16-8 13-9 9-9 10-14 6-14 3-12v-29l4 1 12 8 16 13 21 21-1 4-4 8-1 5v14l3 9 8 9 8 4 4 1h13l10-4 9-7 5-9 1-5v-13l-4-10-7-7-16-9-37-37-17-13-22-15-21-13-27-13-29-12-27-9-19-5-19-3-26-2h-36l-22 2-19 4-18 5-9 15-8 7-12 5h-11l-10-4-8-6-6-10-2-6v-13l4-10 7-8 12-6 3-1h14l9 4 6 4 5-1 33-11 24-5 26-3 88-6 20-3 17-5 11-4 12-6 12-9 7-7 11-16 6-12 5-17 3-20v-20l-3-20-6-21-8-18-9-17-11-16-10-13-22-26-1-4 10 2 36 12 24 9 20 9 21 10 21 12 19 11 4 4 1 11 5 12 8 9 10 4h12l12-4 8-6 6-10 2-12-3-12-7-10-7-5-9-3h-13l-5 2h-5l-24-14-26-14-15-8-22-10-33-13-33-11-34-8-41-7-11-1h-11l-11 12-9 10-9 11-8 8-7 8-14 15-9 11-12 13-9 11-6 5-80 20-40 12-27 10-17 7-5-1-10-20 1-4 8-4 29-11 36-12 29-8 46-11 13-3 6-4 10-12 9-11 10-11 7-8 13-14 7-8 7-9 2-4h-18l-36 3-24 4-25 5-31 8-46 15-38 15-5 5-4 10-6 8-7 6-10 4h-11l-11-4-9-8-6-12-1-5 1-13 6-12 9-7 13-4h7l12 4 3 2 7-1 18-8 18-7 47-15 40-10 31-6 36-5 45-2h3l-3-3-17-9-26-10-24-8-30-7-30-5h-7l-32 7-32 8-32 11-25 10-29 14-27 14-23 14-15 10-4 2-1 5v17l1 30 3 38 1 10-3 5-22 18-11 10-8 7-21 21-11 14-10 13-10 15-12 21-8 17-3 3-4-2-6-12-1-5v-15l3-12 10-17 10-14 11-14 11-13 9-10 19-19 11-9 14-11 1-2-1-23-2-36v-42l6-7 39-26 17-10 26-14 24-11 32-13 22-8 37-10 27-6 29-5 26-3z" fill="#29E89F"/>
<path transform="translate(534,168)" d="m0 0h41l41 3 29 4 31 7 25 7 29 10 24 10 25 12 16 8 16 10 9 6v3l3 4-4 2-7-4-6-3-1-4-4-1v-2l-10-3-8-5-1-3-7-2-2-1v-2l-2 1 2 5 3 4-3 2 2 1v3h2v2h3l1 5-2 4h-6v2l3 1 4 8-1 3-5 1-1 4-2 1v9l-5 2h-1l-2 4-8 9-7-2v-2h-4v2l5 1-3 3 11 3 2 2 9 3 2 1v2l3-1v2l3-1 2 1v2h5v2l10 3 19 8 6 3 3 1v2l6 2 17 8v2l6 2 8 4 1 2 5 1v2l7 2v2l5 1 4 5-5-2-27-15-22-12-23-11-32-13-25-9-24-7-32-7-35-6-11-1h-11l-11 12-9 10-9 11-8 8-7 8-14 15-9 11-12 13-9 11-6 5-80 20-40 12-27 10-17 7-5-1-10-20 1-4 8-4 29-11 36-12 29-8 46-11 13-3 6-4 10-12 9-11 10-11 7-8 13-14 7-8 7-9 2-4h-18l-36 3-24 4-25 5-31 8-46 15-38 15-5 5-4 10-6 8-7 6-10 4h-11l-11-4-9-8-6-12-1-5 1-13 6-12 9-7 13-4h7l12 4 3 2 7-1 18-8 18-7 47-15 40-10 31-6 36-5 45-2h3l-3-3-17-9-26-10-24-8-30-7-30-5h-7l-32 7-32 8-32 11-25 10-29 14-27 14-23 14-15 10-4 2-1 5v17l1 30 3 38 1 10-3 5-22 18-11 10-8 7-21 21-11 14-10 13-10 15-12 21-8 17-3 3-4-2-6-12-1-5v-15l3-12 10-17 10-14 11-14 11-13 9-10 19-19 11-9 14-11 1-2-1-23-2-36v-42l6-7 39-26 17-10 26-14 24-11 32-13 22-8 37-10 27-6 29-5 26-3z" fill="#1BD2BF"/>
<path transform="translate(302,418)" d="m0 0 9 1 12 6 7 7 4 8 2 10-1 9-5 10-5 6-10 6-5 2h-15l-6-3-6 1-11 8-13 10-13 11-10 9-8 7-12 12-11 14-9 12-10 15-10 19-10 25-2 6v5l10 4 19 5 31 5 12 1 3-9 8-19 9-16 10-14 12-14 7-7 5-6 8-7 15-12 14-10 15-10 19-11 17-9 26-12 28-11 31-11 36-10 32-8 38-7 26-3 14-1h33l14-10 8-3h10l11 3 8 6 6 8 3 9v15l-5 10-5 6-8 5-9 2h-11l-9-3-9-8-7-10-2-1h-24l-37 4-25 4-64 16-23 7-30 11-34 14-20 10-24 14-18 12-14 11-13 12-11 11-9 11-9 12-10 17-5 13-4 14-2 9v24l4 15 5 12 6 11 8 10 14 13v11l-2 17-3 1-15-9-10-8-11-11-10-15-9-19-4-14-2-16-1-15-6-2-24-3-20-4-28-8-19-8-4-4v-7l6-23 7-20 11-24 9-17 15-22 11-13 7-8 9-10 12-12 8-7 14-12 19-14 12-8 3-15 5-8 7-7 10-4z" fill="#0BC0D5"/>
<path transform="translate(534,168)" d="m0 0 9 1 7 2 9 2 6 1v1l-15 1-1 3-4 1-3 2-1 4 9 1-2 2-6 1 4 3-4 3h-5v2l-4-1-1 6-4-1 1 2 4 2 2 4h5v2l5 2 8 2 8 4v1h-8l-1 2 6 1 2 2-8-1-21-7-30-7-30-5h-7l-32 7-32 8-32 11-25 10-29 14-27 14-23 14-15 10-4 2-1 5v17l1 30 3 38 1 10-3 5-22 18-11 10-8 7-21 21-11 14-10 13-10 15-12 21-8 17-3 3-4-2-6-12-1-5v-15l3-12 10-17 10-14 11-14 11-13 9-10 19-19 11-9 14-11 1-2-1-23-2-36v-42l6-7 39-26 17-10 26-14 24-11 32-13 22-8 37-10 27-6 29-5 26-3z" fill="#0BC0D5"/>
<path transform="translate(410,641)" d="m0 0 3 1 9 20-1 5-15 8-16 8-17 9-4 3h-2l-4 17-5 27-3 29 21-3 22-5 26-8 42-17 15-6 39-14 35-10 26-5 19-2 35-1 8-6 10-6 3-1h14l10 3 9 7 6 10 2 6v13l-6 12-7 7-11 5-3 1h-11l-12-5-10-10-4-6h-20l-29 3-29 6-35 10-26 9-41 17-28 10-25 7-22 5-19 2-18 1-13-1-4-4v-11l5-44 7-38 5-19 4-5 27-15 24-13z" fill="#1CD3BF"/>
<path transform="translate(664,429)" d="m0 0h10l11 3 8 6 6 8 3 9v15l-5 10-5 6-8 5-9 2h-11l-9-3-9-8-7-10-2-1h-24l-37 4-25 4-64 16-23 7-30 11-20 8-1-2 8-4 7-3h4l1-5-17 6-2 2-5 1v1h-9l-9 3-3-3 3-1 1-2 8-6 8-5 5-1 2-4 3 1v-2l4-1-1-1-3-1v-2h-3l-1 3v-2l-24 10-10 5-5 2-9 4v-3l16-8 22-10 28-11 31-11 36-10 32-8 38-7 26-3 14-1h33l14-10z" fill="#1CD2C0"/>
<path transform="translate(182,308)" d="m0 0h4l1 2v33l-9 10-16 17-12 14-10 13-12 17-11 17-9 16-8 16-9 24-5 17-3 16-1 9v19l3 16 5 13 7 11 12 14 1 2v7l-6 22-2 2-10-8-9-9-11-14-9-15-7-18-3-15-1-9v-13l2-21 5-22 10-30 12-26 10-19 13-20 14-19 14-17 11-13 11-12 3-4h2v-2h2v-2l8-7 8-8z" fill="#0BBFD6"/>
<path transform="translate(538,254)" d="m0 0h6l1 3-5 1h-6l-6 4-13 6h-2l-1 2h3v2l10-2h10l2 2 15 1-1 3-15 1-5 1-8 3-24 5h-3v2l-14 4-26 7-43 14-38 15-5 5-4 10-6 8-7 6-10 4h-11l-11-4-9-8-6-12-1-5 1-13 6-12 9-7 13-4h7l12 4 3 2 7-1 18-8 18-7 47-15 40-10 26-5h15z" fill="#0BC0D5"/>
<path transform="translate(761,537)" d="m0 0 1 2-7 8-10 9-13 8-16 6-16 4-7 2-25 3-65 4-8 1 5 3 13-1 7-1 15 6 3 2v3l-4 2-3 6h-2l-1 7-1 1-7 1-1 1-9 1 1 1 37 4 20 5 26 8 13 5 18 8 15 7-2 1-28-12-24-9-21-6-17-4-23-3-16-1h-36l-22 2-19 4-18 5-9 15-8 7-12 5h-11l-10-4-8-6-6-10-2-6v-13l4-10 7-8 12-6 3-1h14l9 4 6 4 5-1 33-11 24-5 26-3 88-6 20-3 17-5 11-4 12-6 12-9 7-7z" fill="#1CD3BF"/>
<path transform="translate(657,685)" d="m0 0h17l9 4 6 5 6 10 2 6v13l-6 12-7 7-11 5-3 1h-11l-12-5-10-10-4-6h-20l-29 3-6 1h-9v-1l12-3v-3l-2-2 16-4 20-1 9-2-3-4-1-2h-27l-6 2-3-2-1 2-7-1 5-4-5-2v-1l11-2h8l4 1h2v-2l35-2 6-4 8-6z" fill="#29E7A0"/>
<path transform="translate(501,366)" d="m0 0 4 2 1 3-12 5-16 6-5 1-1 2-5 1-1 2h8l11-1v2l-3 2h-3v2h4v2l-4-1v2l-9 1-5 3-23 7h-4l-1 2-2-1-1 2-2-1v3l-27 9-30 12-5-1-10-20 1-4 8-4 29-11 36-12 29-8 8-2h11l7-1 4-1 1-2z" fill="#0BC0D5"/>
<path transform="translate(562,802)" d="m0 0h43l15 2v1h-12l-7-1h-31l-21 3-17 3-3 3h-5v2h-2v-2l-3 1 1 3 9-3 7 1 2 1-4 2 1 2-4 2-4 8-1 4-6 14-4 2-4-1-1 2-6-3-5-4-4-6-3-1 1 8 3 1 2 5 4 5 3 6v3h3v2h2l1 5 4 4v8l1 2h-3l1 8-4-3-1-7h-2l-4-10-3-2-1-8-1-3h-2l-2-8-1-5-3-1-4-9h-2l-2-6v-5l5-4 16-7 19-6 22-5z" fill="#1CD3BF"/>
<path transform="translate(672,430)" d="m0 0 8 2v1l-5 1v2l4 1v2h2v2h3v2l1-1v-4l5-1 6 7 3 5v2h2l1 4v15l-5 10-5 6-8 5-4 1h-15v-2l10-4 5-3h2v-2l2-1 1-4h2l2-6 1-2h2l-2-12h-2l-3-6-2-5-9-7-5-5-9 1-5 2 4-4z" fill="#28E6A2"/>
<path transform="translate(274,735)" d="m0 0 3 1 7 9 14 13v11l-2 17-3 1-3-2v-2l3-1v-6l-7-4-2-5h-2l-3-9 3-2h5l1-3-7-8-7-9z" fill="#1BD2C0"/>
<path transform="translate(748,299)" d="m0 0 9 1 2 2 9 3 2 1v2l3-1v2l3-1 2 1v2h5v2l10 3 19 8 6 3 3 1v2l6 2 17 8v2l6 2 8 4 1 2 5 1v2l7 2v2l5 1 4 5-5-2-27-15-22-12-23-11-32-13-22-8z" fill="#1CD3C0"/>
<path transform="translate(713,321)" d="m0 0 10 2 30 10-4 1-15-5h-5l1 3-4 3 11 13 6 8-1 2-12-14-9-11-7-8z" fill="#1FD5BE"/>
<path transform="translate(757,772)" d="m0 0v3l-5 7-8 7-11 8-10 6-16 6-16 3h-25l-17-2v-1h10l14 1h12l14-2 16-5 16-8 13-9 9-9z" fill="#1CD3C0"/>
<path transform="translate(553,329)" d="m0 0 2 4-2 5h-2l-2 4h-2l-2 5-3 4h-2v2h-3v2h-2l-1 5-5 4-4-1 4-6 5-5 5-7h3l1-4 9-10z" fill="#0ABFD6"/>
<path transform="translate(367,666)" d="m0 0h6l-5 5-8 4h-4l-2 4-4 4-1 3h-2l-2 6-3 5-2 4-1-3v-11l4-5 4-4 10-6z" fill="#0ABFD6"/>
<path transform="translate(810,324)" d="m0 0 5 2 6 2v2l6 2 17 8v2l6 2 8 4 1 2 5 1v2l7 2v2l5 1 4 5-5-2-27-15-22-12-16-8z" fill="#22D4C1"/>
<path transform="translate(564,313)" d="m0 0 2 2-11 13-9 11-3 4-1 3-5 2v-4l24-28z" fill="#25D4C3"/>
<path transform="translate(772,708)" d="m0 0 4 1 12 8 4 4-5-2-7-5-5-1 1 2v10l-3 19-4 10-1-3 4-14z" fill="#1DD3C0"/>
<path transform="translate(680,431)" d="m0 0 6 2 6 4 6 7 2 4-1 3-6-10-3-3h-5v4h2l-1 2-2-1v-2h-3v-2h-2v-2l-5-1 1-3h5z" fill="#1DD5BC"/>
<path transform="translate(442,503)" d="m0 0 1 3-2 1 1 3-28 11-1-2 8-4 7-3h4l1-4 3-1v-2z" fill="#14CAC9"/>
<path transform="translate(761,537)" d="m0 0 1 2-7 8-10 9-13 8-12 5h-4v-2l11-4 12-6 12-9 7-7z" fill="#1CD3C0"/>
<path transform="translate(399,495)" d="m0 0h2v3l-15 7-6 3-5 2-9 4v-3l16-8z" fill="#19CFC3"/>
<path transform="translate(177,312)" d="m0 0 2 1-27 27-7 8-3 4-3-1 16-17 2-3h2v-2h2v-2l8-7z" fill="#28CECF"/>
<path transform="translate(356,669)" d="m0 0 3 1-8 7-4 1-1 2-4 5-2 1 1-6 4-5z" fill="#17CEC5"/>
<path transform="translate(680,483)" d="m0 0 2 1-2 4h-2v2h2v2h-15v-2l10-4z" fill="#29E8A0"/>
<path transform="translate(698,475)" d="m0 0 1 2-7 9-8 5-6-1v-2l2-1 3-5h2v2h-2l3 3 8-7z" fill="#1ED6BA"/>
<path transform="translate(224,275)" d="m0 0 2 1-9 9-1 41h-1v-42l6-7z" fill="#25D4C3"/>
<path transform="translate(687,444)" d="m0 0 8 6 2 1 1 4v11l-2 2-2-2 2-7-5-8v-2l-3-1z" fill="#1CD3C0"/>
<path transform="translate(301,555)" d="m0 0m-2 1 2 1-21 21-1 2h-2l-1 3h-2l2-4 9-9 5-6 8-7z" fill="#24CECC"/>
<path transform="translate(748,299)" d="m0 0 9 1 2 2 9 3-2 2-6-1-11-4z" fill="#1ED6BA"/>
<path transform="translate(496,365)" d="m0 0h2l-1 2zm-4 1 4 1-4 4h-8l-6 1-3-2z" fill="#1AD0C2"/>
<path transform="translate(562,867)" d="m0 0 1 4-2 12-2-3-3 6-2-4 3-8 3-1z" fill="#1CD3BF"/>
<path transform="translate(800,314)" d="m0 0 7 1 1 2 11 4 2 1-1 2-10-2v-2h-3v-2l-7-2z" fill="#1CD3C0"/>
<path transform="translate(538,252)" d="m0 0m-7 1h7v2l-11 2h-9l-1-2z" fill="#1AD1C1"/>
<path transform="translate(659,618)" d="m0 0h7l3 2 3 1-2 3-9-2-3-3z" fill="#1CD3BE"/>
<path transform="translate(753,296)" d="m0 0 15 3 8 4v1h-8l-5-3-9-3z" fill="#1CD3C0"/>
<path transform="translate(574,302)" d="m0 0 2 1-4 2zm-3 3m-1 1 3 3-4 5h-2l-2 4-2 1 2-5 2-4z" fill="#10C6CE"/>
<path transform="translate(392,528)" d="m0 0 4 1-21 11v-3z" fill="#19D0C2"/>
<path transform="translate(513,282)" d="m0 0h3l-1 3-16 3h-3v-2z" fill="#19D0C2"/>
<path transform="translate(217,495)" d="m0 0 2 1-7 8-7 6v-3z" fill="#21CECA"/>
<path transform="translate(564,313)" d="m0 0 2 2-9 11-3-2z" fill="#21D4C1"/>
<path transform="translate(244,472)" d="m0 0 2 1-3 3-2-1zm-5 4h2v2h-2v2l-10 8h-3l5-5z" fill="#26CFCD"/>
<path transform="translate(592,722)" d="m0 0h13l-1 2-2 1h-13z" fill="#1CD3C0"/>
<path transform="translate(643,695)" d="m0 0 3 1-2 5-6 2-2-2z" fill="#1CD3C0"/>
<path transform="translate(925,544)" d="m0 0 2 2 2 6 3 15-4-4-3-16z" fill="#22D4C1"/>
<path transform="translate(524,169)" d="m0 0h5v2l-3 1h-15l2-2z" fill="#1BD1C1"/>
<path transform="translate(733,560)" d="m0 0m-1 1v3l-12 5h-4v-2l11-4z" fill="#28D5C3"/>
<path transform="translate(428,512)" d="m0 0 1 3-16 6v-2l8-4z" fill="#19D0C3"/>
<path transform="translate(378,505)" d="m0 0 2 1v2l-5 2-9 4v-3z" fill="#21D3C3"/>
<path transform="translate(471,371)" d="m0 0 6 1v1l-11 3-6-1 3-2z" fill="#19D0C2"/>
<path transform="translate(512,256)" d="m0 0h4v2l-7 2h-7l-2-2z" fill="#19D0C2"/>
<path transform="translate(651,736)" d="m0 0h3l4 5-1 2-6-1z" fill="#1CD3C0"/>
<path transform="translate(455,375)" d="m0 0 6 1v1l-12 3-5-1 4-2z" fill="#19D0C2"/>
<path transform="translate(629,720)" d="m0 0 9 1 1 2h-5v2l-7-2z" fill="#1CD3C0"/>
<path transform="translate(642,616)" d="m0 0h12l3 3h-11l-6-1z" fill="#1CD3C0"/>
<path transform="translate(473,264)" d="m0 0h3v2l-10 3-5-1 4-2z" fill="#19D0C3"/>
<path transform="translate(698,475)" d="m0 0 1 2-7 9-5 3 2-4 7-7z" fill="#3BD8C8"/>
<path transform="translate(285,424)" d="m0 0 2 1-7 8h-2l-1 2v-3z" fill="#1ECEC8"/>
<path transform="translate(538,254)" d="m0 0h6l1 3-5 1-6-1 1-2z" fill="#0ABFD7"/>
<path transform="translate(539,806)" d="m0 0m-4 1h4v2l-7 1-1 2h-5l1-3z" fill="#1DD5BC"/>
<path transform="translate(347,674)" d="m0 0 2 1zm-2 1 2 1-2 4-4 6-1-3 3-6z" fill="#1AD1C1"/>
<path transform="translate(782,307)" d="m0 0 8 1 7 3v1l-9-1-6-3z" fill="#1CD3C0"/>
<path transform="translate(759,302)" d="m0 0 9 3-2 2-6-1-2-1z" fill="#1DD5BC"/>
</svg>
